<svg width="676" height="424" viewBox="0 0 676 424" fill="none" xmlns="http://www.w3.org/2000/svg">
<g clip-path="url(#clip0_7833_22593)">
<path d="M70.7204 138.058C68.6727 138.05 66.6808 137.39 65.033 136.175L51.3272 126.217C50.19 125.387 48.8184 124.939 47.4103 124.939C46.0022 124.939 44.6305 125.387 43.4934 126.217L29.7876 136.175C28.1347 137.376 26.144 138.023 24.1009 138.023C22.0578 138.023 20.0671 137.376 18.4141 136.175C16.7611 134.974 15.5306 133.281 14.8991 131.338C14.2675 129.395 14.2673 127.302 14.8984 125.359L20.1337 109.247C20.5713 107.909 20.5728 106.466 20.1377 105.126C19.7027 103.787 18.8537 102.621 17.713 101.795L4.00726 91.8372C2.35441 90.6362 1.12419 88.9427 0.492918 86.9995C-0.138352 85.0563 -0.138258 82.9632 0.493162 81.02C1.12458 79.0769 2.35492 77.3835 4.00787 76.1826C5.66082 74.9817 7.65151 74.3348 9.69467 74.3347H26.6355C28.0434 74.3373 29.4158 73.8928 30.5549 73.0652C31.6939 72.2377 32.5408 71.0699 32.9735 69.7301L38.2088 53.6184C38.84 51.675 40.0703 49.9813 41.7233 48.7801C43.3764 47.579 45.3673 46.932 47.4106 46.932C49.454 46.932 51.4449 47.579 53.098 48.7801C54.751 49.9813 55.9813 51.675 56.6125 53.6184L61.8471 69.7301C62.28 71.07 63.127 72.2378 64.2661 73.0653C65.4053 73.8928 66.7778 74.3373 68.1858 74.3347H85.1266C87.1698 74.3348 89.1605 74.9816 90.8134 76.1826C92.4664 77.3835 93.6967 79.0769 94.3282 81.0201C94.9596 82.9632 94.9597 85.0563 94.3284 86.9995C93.6971 88.9427 92.4669 90.6362 90.8141 91.8372L77.1083 101.795C75.9674 102.62 75.1182 103.787 74.683 105.126C74.2478 106.466 74.2492 107.909 74.6869 109.247L79.9222 125.359C80.5766 127.3 80.5881 129.4 79.955 131.349C79.3218 133.297 78.0776 134.989 76.407 136.175C74.7594 137.39 72.7678 138.05 70.7204 138.058Z" fill="#2A81C8"/>
<path d="M209.607 138.058C207.56 138.05 205.568 137.39 203.92 136.175L190.215 126.217C189.077 125.389 187.705 124.943 186.297 124.943C184.89 124.943 183.518 125.389 182.38 126.217L168.674 136.175C167.021 137.376 165.031 138.023 162.988 138.023C160.945 138.023 158.954 137.376 157.301 136.175C155.648 134.975 154.418 133.281 153.786 131.338C153.155 129.395 153.155 127.302 153.786 125.359L159.02 109.247C159.458 107.909 159.459 106.466 159.024 105.126C158.589 103.787 157.74 102.621 156.6 101.795L142.894 91.8372C141.241 90.6362 140.011 88.9427 139.38 86.9995C138.748 85.0563 138.748 82.9632 139.38 81.0201C140.011 79.0769 141.242 77.3835 142.895 76.1826C144.548 74.9816 146.538 74.3348 148.581 74.3347H165.522C166.93 74.3373 168.303 73.8928 169.442 73.0653C170.581 72.2377 171.428 71.0699 171.86 69.7301L177.096 53.6184C177.727 51.675 178.957 49.9813 180.61 48.7801C182.263 47.579 184.254 46.932 186.297 46.932C188.341 46.932 190.332 47.579 191.985 48.7801C193.638 49.9813 194.868 51.675 195.499 53.6184L200.735 69.7301C201.167 71.0699 202.014 72.2377 203.153 73.0652C204.292 73.8928 205.665 74.3373 207.073 74.3347H224.013C226.057 74.3348 228.047 74.9816 229.7 76.1826C231.353 77.3835 232.583 79.0769 233.215 81.0201C233.846 82.9632 233.846 85.0563 233.215 86.9995C232.584 88.9427 231.354 90.6362 229.701 91.8372L215.995 101.795C214.854 102.621 214.005 103.787 213.57 105.126C213.135 106.466 213.137 107.909 213.574 109.247L218.809 125.359C219.463 127.3 219.475 129.4 218.842 131.349C218.209 133.297 216.965 134.989 215.294 136.175C213.647 137.39 211.655 138.05 209.607 138.058Z" fill="#2A81C8"/>
<path d="M300.666 138.618C298.417 138.609 296.23 137.886 294.42 136.552C292.585 135.249 291.218 133.39 290.522 131.249C289.827 129.109 289.839 126.801 290.558 124.668L295.794 108.557C296.169 107.41 296.17 106.174 295.797 105.026C295.424 103.878 294.696 102.879 293.719 102.171L280.013 92.2129C278.197 90.8937 276.846 89.0335 276.152 86.899C275.458 84.7645 275.458 82.4651 276.152 80.3306C276.846 78.1961 278.197 76.336 280.013 75.0168C281.829 73.6977 284.015 72.9872 286.26 72.9873H303.201C304.408 72.9895 305.584 72.6085 306.56 71.8991C307.536 71.1897 308.262 70.1886 308.633 69.0402L313.869 52.9289C314.562 50.7944 315.914 48.9343 317.729 47.6151C319.545 46.2959 321.732 45.5854 323.976 45.5854C326.221 45.5854 328.407 46.2959 330.223 47.6151C332.039 48.9343 333.39 50.7944 334.084 52.9289L339.319 69.0402C339.689 70.1886 340.415 71.1896 341.391 71.899C342.368 72.6084 343.544 72.9895 344.751 72.9873H361.692C363.936 72.9874 366.123 73.6979 367.939 75.0171C369.754 76.3363 371.106 78.1964 371.799 80.3308C372.493 82.4652 372.493 84.7644 371.799 86.8989C371.106 89.0334 369.755 90.8936 367.939 92.2129L354.233 102.171C353.256 102.879 352.528 103.878 352.155 105.026C351.782 106.174 351.783 107.41 352.158 108.557L357.393 124.668C358.087 126.803 358.087 129.102 357.393 131.237C356.699 133.371 355.348 135.231 353.532 136.55C351.716 137.87 349.53 138.58 347.285 138.58C345.041 138.58 342.854 137.87 341.038 136.551L327.333 126.593C326.358 125.882 325.182 125.499 323.976 125.499C322.769 125.499 321.593 125.882 320.618 126.593L306.912 136.551C305.102 137.885 302.915 138.61 300.666 138.618ZM323.976 120.581C326.221 120.581 328.408 121.294 330.222 122.616L343.928 132.573C344.903 133.283 346.079 133.665 347.285 133.665C348.492 133.665 349.667 133.283 350.643 132.574C351.619 131.865 352.345 130.866 352.718 129.718C353.091 128.571 353.091 127.335 352.718 126.188L347.483 110.076C346.785 107.942 346.783 105.641 347.477 103.506C348.171 101.37 349.525 99.5105 351.344 98.1942L365.049 88.2358C366.025 87.5268 366.752 86.527 367.124 85.3799C367.497 84.2327 367.497 82.997 367.124 81.8498C366.752 80.7026 366.025 79.7029 365.049 78.9939C364.074 78.2849 362.898 77.903 361.692 77.9029H344.751C342.506 77.9071 340.317 77.1982 338.5 75.8784C336.684 74.5587 335.334 72.6962 334.644 70.5595L329.408 54.4482C329.036 53.3009 328.309 52.3011 327.333 51.592C326.357 50.883 325.182 50.5011 323.976 50.5011C322.769 50.5011 321.594 50.883 320.618 51.592C319.642 52.3011 318.916 53.3009 318.543 54.4482L313.308 70.5595C312.618 72.6962 311.268 74.5587 309.451 75.8785C307.635 77.1983 305.446 77.9072 303.201 77.9029H286.26C285.054 77.9028 283.878 78.2846 282.902 78.9936C281.926 79.7026 281.2 80.7023 280.827 81.8495C280.454 82.9967 280.454 84.2325 280.827 85.3797C281.2 86.5269 281.926 87.5267 282.902 88.2358L296.608 98.1942C298.427 99.5108 299.781 101.371 300.475 103.506C301.169 105.642 301.167 107.942 300.469 110.076L295.233 126.188C294.86 127.335 294.86 128.571 295.233 129.718C295.606 130.865 296.332 131.865 297.308 132.574C298.284 133.283 299.46 133.665 300.666 133.665C301.872 133.664 303.047 133.282 304.023 132.573L317.729 122.616C319.544 121.294 321.731 120.581 323.976 120.581Z" fill="#3F3D56"/>
<path d="M558.53 163.327L524.859 192.272L472.088 237.621L464.955 243.753C464.303 244.309 463.767 244.989 463.379 245.754C462.991 246.518 462.759 247.353 462.697 248.208C462.604 249.449 462.867 250.691 463.455 251.789C463.678 252.203 463.946 252.591 464.254 252.947L468.08 257.402L473.904 264.177C474.012 264.297 474.113 264.409 474.228 264.523C475.391 265.688 476.952 266.37 478.597 266.433C480.242 266.497 481.85 265.936 483.1 264.865L542.939 213.448L576.681 184.447C577.989 183.317 578.796 181.715 578.925 179.991C579.053 178.267 578.494 176.563 577.368 175.251L575.332 172.884L567.724 164.028C567.167 163.377 566.487 162.843 565.723 162.456C564.959 162.068 564.126 161.835 563.272 161.77C562.418 161.705 561.56 161.809 560.746 162.076C559.932 162.343 559.179 162.768 558.53 163.327Z" fill="#2A81C8"/>
<path d="M584.191 138.974C613.838 138.974 637.872 114.94 637.872 85.2929C637.872 55.6458 613.838 31.6121 584.191 31.6121C554.543 31.6121 530.51 55.6458 530.51 85.2929C530.51 114.94 554.543 138.974 584.191 138.974Z" fill="#2A81C8"/>
<path d="M588.135 293.753V417.135C588.136 418.864 588.824 420.521 590.046 421.743C591.268 422.966 592.926 423.653 594.654 423.655H609.459C611.187 423.653 612.845 422.966 614.067 421.743C615.289 420.521 615.977 418.864 615.978 417.135V293.753C615.977 292.025 615.289 290.367 614.067 289.145C612.845 287.923 611.187 287.235 609.459 287.234H594.654C592.926 287.235 591.268 287.923 590.046 289.145C588.824 290.367 588.136 292.025 588.135 293.753Z" fill="#2F2E41"/>
<path d="M556.851 293.753V417.135C556.851 417.991 557.019 418.839 557.347 419.63C557.674 420.421 558.155 421.14 558.76 421.745C559.365 422.351 560.084 422.831 560.875 423.159C561.666 423.486 562.514 423.655 563.37 423.655H578.175C579.903 423.653 581.561 422.966 582.783 421.743C584.005 420.521 584.693 418.864 584.694 417.135V293.753C584.693 292.025 584.005 290.367 582.783 289.145C581.561 287.923 579.903 287.235 578.175 287.234H563.37C562.514 287.234 561.666 287.402 560.875 287.73C560.084 288.058 559.365 288.538 558.76 289.143C558.155 289.749 557.674 290.467 557.347 291.258C557.019 292.049 556.851 292.897 556.851 293.753Z" fill="#2F2E41"/>
<path d="M562.861 310.656C557.29 310.651 551.792 309.391 546.775 306.971C541.758 304.55 537.35 301.031 533.879 296.675C530.407 292.318 527.962 287.235 526.723 281.804C525.484 276.373 525.484 270.733 526.723 265.302L543.47 191.89C543.481 184.297 545.585 176.854 549.55 170.379C553.516 163.903 559.189 158.646 565.947 155.184C572.705 151.722 580.287 150.19 587.859 150.756C595.431 151.322 602.7 153.963 608.869 158.391C614.201 162.219 618.547 167.26 621.548 173.097C624.549 178.935 626.12 185.403 626.13 191.967C626.153 192.63 628.488 260.901 629.467 292.45C629.534 294.609 629.173 296.759 628.406 298.778C627.639 300.796 626.481 302.644 624.998 304.214C623.515 305.783 621.736 307.044 619.764 307.925C617.792 308.805 615.665 309.286 613.507 309.342L564.056 310.637C563.657 310.649 563.258 310.656 562.861 310.656Z" fill="#2F2E41"/>
<path d="M538.858 109.023L538.914 107.017C535.182 106.913 531.892 106.679 529.419 104.873C528.719 104.331 528.142 103.646 527.73 102.862C527.318 102.078 527.08 101.215 527.031 100.331C526.987 99.7903 527.069 99.2473 527.27 98.7438C527.47 98.2403 527.784 97.7898 528.187 97.4273C529.828 96.0413 532.469 96.4899 534.394 97.3725L536.054 98.1335L532.871 74.873L530.883 75.1454L533.591 94.9315C530.975 94.1626 528.552 94.4937 526.892 95.8954C526.255 96.4517 525.755 97.1479 525.431 97.9296C525.108 98.7112 524.969 99.5571 525.026 100.401C525.085 101.589 525.403 102.75 525.957 103.802C526.511 104.854 527.289 105.773 528.236 106.493C531.413 108.814 535.541 108.93 538.858 109.023Z" fill="#2F2E41"/>
<path d="M555.158 76.8517H544.354V78.8577H555.158V76.8517Z" fill="#2F2E41"/>
<path d="M598.215 173.351L600.06 217.714L602.939 287.234L603.33 296.632C603.362 297.489 603.563 298.331 603.923 299.109C604.283 299.888 604.794 300.587 605.426 301.166C606.343 302.008 607.481 302.572 608.706 302.791C609.17 302.872 609.641 302.902 610.11 302.881L615.978 302.64L624.905 302.269C625.066 302.259 625.216 302.249 625.377 302.229C627.012 302.038 628.514 301.236 629.584 299.985C630.653 298.733 631.211 297.124 631.144 295.479L627.884 216.651L626.039 172.197C625.963 170.47 625.206 168.844 623.933 167.674C622.66 166.505 620.975 165.888 619.248 165.958L616.129 166.089L604.464 166.57C603.608 166.604 602.767 166.806 601.989 167.166C601.212 167.525 600.513 168.034 599.932 168.664C599.352 169.294 598.901 170.032 598.607 170.836C598.312 171.64 598.179 172.495 598.215 173.351Z" fill="#2A81C8"/>
<path d="M593.712 177.102V211.205C593.713 212.903 594.377 214.534 595.563 215.75C596.749 216.966 598.363 217.671 600.061 217.714C600.117 217.723 600.174 217.726 600.232 217.724H624.304C624.691 217.723 625.077 217.686 625.457 217.614C626.324 217.463 627.15 217.135 627.885 216.651C628.786 216.056 629.526 215.247 630.038 214.297C630.551 213.347 630.821 212.284 630.824 211.205V177.102C630.818 172.182 628.861 167.466 625.382 163.988C621.904 160.509 617.187 158.552 612.268 158.546C610.994 158.543 609.723 158.674 608.476 158.937C604.306 159.813 600.563 162.096 597.875 165.403C595.187 168.71 593.717 172.84 593.712 177.102Z" fill="#2F2E41"/>
<path d="M523.379 191.335C523.628 192.145 524.033 192.898 524.573 193.552L539.819 212.178C540.091 212.522 540.404 212.832 540.752 213.101C541.916 214.05 543.373 214.567 544.876 214.565C546.378 214.564 547.834 214.043 548.997 213.091L575.386 191.495C577.272 189.952 578.835 188.052 579.986 185.904C581.137 183.756 581.854 181.402 582.096 178.977C582.337 176.553 582.099 174.104 581.394 171.771C580.69 169.438 579.533 167.267 577.989 165.381C576.445 163.496 574.545 161.933 572.397 160.782C570.249 159.63 567.896 158.913 565.471 158.672C563.046 158.43 560.597 158.668 558.264 159.373C555.932 160.078 553.76 161.235 551.875 162.779L525.486 184.374C524.487 185.197 523.753 186.297 523.379 187.536C523.004 188.774 523.004 190.096 523.379 191.335Z" fill="#2F2E41"/>
<path d="M575.971 53.7289C567.028 57.4522 557.397 61.5713 547.486 60.4299C539.367 59.4949 531.565 54.748 529.695 46.3594C527.908 38.3436 531.602 29.9817 537.49 24.6123C544.15 18.5386 553.344 15.6001 562.12 14.3607C567.421 13.6119 573.312 13.5635 578.2 16.0451C582.113 18.0315 585.63 21.6232 586.235 26.1381L589.995 25.1198C587.338 20.6153 588.609 15.1559 591.549 11.1096C595.085 6.24456 601.019 4.21849 606.847 4.04925C618.701 3.70505 630.829 9.20565 640.374 15.8634C649.775 22.4441 657.513 31.1244 662.975 41.216C669.1 52.5518 672.473 66.107 670.413 78.9699C668.316 92.0616 659.847 104.485 646.738 108.425C644.257 109.171 645.314 113.067 647.811 112.317C660.325 108.555 669.569 97.7183 673.119 85.3605C677.199 71.1598 674.393 55.6073 668.134 42.4768C662.585 30.9989 654.303 21.0589 644.015 13.5298C633.731 5.94909 620.402 -0.148811 607.411 0.00263921C599.947 0.0896392 592.718 2.75002 588.199 8.89072C584.342 14.1335 583.104 21.3819 586.511 27.1564C587.446 28.7415 590.55 28.2217 590.27 26.1381C588.854 15.5729 578.63 10.1415 568.784 9.90707C563.227 9.8858 557.699 10.7033 552.386 12.3319C547.47 13.6785 542.804 15.8111 538.569 18.6472C530.618 24.1513 525.025 32.941 525.249 42.8391C525.472 52.7137 532.124 60.2987 541.344 63.2191C553.512 67.0731 565.851 62.2799 577.043 57.62C577.549 57.4624 577.976 57.1183 578.238 56.6574C578.5 56.1965 578.576 55.6533 578.452 55.1381C578.308 54.6236 577.966 54.1871 577.501 53.9233C577.036 53.6594 576.486 53.5896 575.971 53.7289Z" fill="#2F2E41"/>
<path d="M412.169 251.526C409.92 251.517 407.733 250.793 405.923 249.46C404.088 248.157 402.721 246.298 402.025 244.157C401.33 242.017 401.342 239.709 402.061 237.576L407.297 221.465C407.672 220.318 407.673 219.082 407.3 217.934C406.927 216.786 406.199 215.787 405.222 215.079L391.516 205.121C389.7 203.802 388.348 201.941 387.655 199.807C386.961 197.672 386.961 195.373 387.655 193.239C388.349 191.104 389.7 189.244 391.516 187.925C393.332 186.606 395.518 185.895 397.763 185.895H414.704C415.911 185.898 417.087 185.516 418.063 184.807C419.039 184.098 419.765 183.097 420.136 181.948L425.372 165.837C426.065 163.702 427.417 161.842 429.232 160.523C431.048 159.204 433.235 158.493 435.479 158.493C437.723 158.493 439.91 159.204 441.726 160.523C443.542 161.842 444.893 163.702 445.587 165.837L450.822 181.948C451.192 183.097 451.918 184.098 452.894 184.807C453.871 185.516 455.047 185.897 456.254 185.895H473.195C475.439 185.895 477.626 186.606 479.442 187.925C481.257 189.244 482.609 191.104 483.302 193.239C483.996 195.373 483.996 197.672 483.302 199.807C482.609 201.941 481.258 203.802 479.442 205.121L465.736 215.079C464.759 215.787 464.031 216.786 463.658 217.934C463.285 219.081 463.286 220.318 463.661 221.465L468.896 237.576C469.59 239.711 469.59 242.01 468.896 244.145C468.202 246.279 466.851 248.139 465.035 249.458C463.219 250.778 461.033 251.488 458.788 251.488C456.544 251.488 454.357 250.778 452.541 249.458L438.836 239.501C437.861 238.79 436.686 238.407 435.479 238.407C434.272 238.407 433.096 238.79 432.121 239.501L418.415 249.458C416.605 250.793 414.418 251.518 412.169 251.526ZM435.479 233.489C437.724 233.489 439.911 234.202 441.725 235.524L455.431 245.481C456.406 246.191 457.582 246.573 458.788 246.573C459.994 246.573 461.17 246.191 462.146 245.482C463.122 244.773 463.848 243.774 464.221 242.626C464.594 241.479 464.594 240.243 464.221 239.096L458.986 222.984C458.288 220.85 458.286 218.549 458.98 216.414C459.674 214.278 461.028 212.418 462.847 211.102L476.552 201.144C477.528 200.435 478.254 199.435 478.627 198.288C479 197.141 479 195.905 478.627 194.758C478.254 193.611 477.528 192.611 476.552 191.902C475.576 191.193 474.401 190.811 473.195 190.811H456.254C454.009 190.815 451.82 190.106 450.003 188.786C448.187 187.467 446.836 185.604 446.147 183.467L440.911 167.356C440.538 166.209 439.812 165.209 438.836 164.5C437.86 163.791 436.685 163.409 435.479 163.409C434.272 163.409 433.097 163.791 432.121 164.5C431.145 165.209 430.419 166.209 430.046 167.356L424.811 183.467C424.121 185.604 422.771 187.467 420.954 188.786C419.138 190.106 416.949 190.815 414.704 190.811H397.763C396.557 190.811 395.381 191.193 394.405 191.902C393.429 192.611 392.703 193.61 392.33 194.757C391.957 195.905 391.957 197.14 392.33 198.288C392.703 199.435 393.429 200.435 394.405 201.144L408.111 211.102C409.93 212.419 411.284 214.279 411.978 216.414C412.672 218.55 412.67 220.85 411.972 222.984L406.736 239.096C406.363 240.243 406.363 241.479 406.736 242.626C407.109 243.773 407.835 244.773 408.811 245.482C409.787 246.191 410.962 246.573 412.169 246.573C413.375 246.572 414.55 246.19 415.526 245.481L429.232 235.524C431.047 234.202 433.234 233.489 435.479 233.489Z" fill="#3F3D56"/>
</g>
<defs>
<clipPath id="clip0_7833_22593">
<rect width="675.033" height="423.655" fill="white"/>
</clipPath>
</defs>
</svg>
